<svg version="1.1" viewBox="0.0 0.0 359.18635170603676 348.62204724409446" fill="none" stroke="none" stroke-linecap="square" stroke-miterlimit="10" xmlns:xlink="http://www.w3.org/1999/xlink" xmlns="http://www.w3.org/2000/svg"><clipPath id="p.0"><path d="m0 0l359.18634 0l0 348.62204l-359.18634 0l0 -348.62204z" clip-rule="nonzero"/></clipPath><g clip-path="url(#p.0)"><path fill="#000000" fill-opacity="0.0" d="m0 0l359.18634 0l0 348.62204l-359.18634 0z" fill-rule="evenodd"/><path fill="#00ffff" d="m0 151.9685l0 0c0 -83.929886 77.61338 -151.9685 173.35432 -151.9685l0 0c95.74095 -4.2043958E-14 173.35432 68.03862 173.35432 151.9685l0 0c0 83.929886 -77.61337 151.9685 -173.35432 151.9685l0 0c-95.740944 0 -173.35432 -68.03862 -173.35432 -151.9685z" fill-rule="evenodd"/><path stroke="#000000" stroke-width="3.0" stroke-linejoin="round" stroke-linecap="butt" d="m0 151.9685l0 0c0 -83.929886 77.61338 -151.9685 173.35432 -151.9685l0 0c95.74095 -4.2043958E-14 173.35432 68.03862 173.35432 151.9685l0 0c0 83.929886 -77.61337 151.9685 -173.35432 151.9685l0 0c-95.740944 0 -173.35432 -68.03862 -173.35432 -151.9685z" fill-rule="evenodd"/><path fill="#ffffff" d="m195.0315 125.97113l0 0c0 -41.738815 25.466888 -75.57481 56.881897 -75.57481l0 0c15.085999 0 29.554138 7.962322 40.221558 22.135345c10.667419 14.173027 16.66034 33.395775 16.66034 53.43946l0 0c0 41.738815 -25.466888 75.5748 -56.881897 75.5748l0 0c-31.415009 0 -56.881897 -33.835983 -56.881897 -75.5748z" fill-rule="evenodd"/><path stroke="#000000" stroke-width="3.0" stroke-linejoin="round" stroke-linecap="butt" d="m195.0315 125.97113l0 0c0 -41.738815 25.466888 -75.57481 56.881897 -75.57481l0 0c15.085999 0 29.554138 7.962322 40.221558 22.135345c10.667419 14.173027 16.66034 33.395775 16.66034 53.43946l0 0c0 41.738815 -25.466888 75.5748 -56.881897 75.5748l0 0c-31.415009 0 -56.881897 -33.835983 -56.881897 -75.5748z" fill-rule="evenodd"/><path fill="#000000" d="m253.54593 99.14698l0 0c0 -16.159767 10.188171 -29.259842 22.75592 -29.259842l0 0c6.0352173 0 11.823273 3.0827255 16.09085 8.570007c4.2675476 5.4872894 6.665039 12.929642 6.665039 20.689835l0 0c0 16.159767 -10.188171 29.25985 -22.75589 29.25985l0 0c-12.567749 0 -22.75592 -13.100082 -22.75592 -29.25985z" fill-rule="evenodd"/><path stroke="#000000" stroke-width="1.0" stroke-linejoin="round" stroke-linecap="butt" d="m253.54593 99.14698l0 0c0 -16.159767 10.188171 -29.259842 22.75592 -29.259842l0 0c6.0352173 0 11.823273 3.0827255 16.09085 8.570007c4.2675476 5.4872894 6.665039 12.929642 6.665039 20.689835l0 0c0 16.159767 -10.188171 29.25985 -22.75589 29.25985l0 0c-12.567749 0 -22.75592 -13.100082 -22.75592 -29.25985z" fill-rule="evenodd"/><path fill="#000000" fill-opacity="0.0" d="m43.086655 254.19572l136.15749 53.354324l-23.811035 60.692932l-136.15747 -53.35434z" fill-rule="evenodd"/><path fill="#000000" d="m38.969612 299.7715q-0.16002655 -0.062683105 -0.3034973 -0.25317383q-0.1346283 -0.17022705 -0.17682648 -0.40493774q-0.1819725 -0.3062439 -0.033599854 -0.6844177q0.29103088 -0.7418213 2.6261559 -3.4852295q0.58657074 -0.8106079 1.173706 -1.5371094q0.4464836 -0.49630737 0.5606117 -0.78723145q0.10271835 -0.2618103 0.3067093 -0.5678711q0.22424316 -0.31488037 0.27560425 -0.44580078q0.39279556 0.15393066 1.2264366 -1.0297852q0.324955 -0.4432373 0.54349136 -0.7435913q0.23308945 -0.2946167 0.34207535 -0.48687744q0.10697937 -0.058776855 0.25390244 -0.21936035q0.16717911 -0.1694336 0.28814316 -0.3066101q0.564312 -0.66833496 1.1930809 -1.2442322q0.9634514 -1.3006592 2.109188 -2.6809082q1.1659927 -1.3890991 1.8378448 -2.0320435l0.754879 -0.8117981q0.08359146 -0.0847168 0.29384995 -0.321167q0.22480774 -0.23077393 0.27046204 -0.34713745q0.05135727 -0.13092041 -0.021945953 -0.24353027q-0.12578583 -0.1499939 -0.03448105 -0.38272095q0.1654892 -0.42181396 1.2135773 -0.78308105q0.57226944 -0.346344 0.90574646 -0.3834839q0.33347702 -0.037139893 0.8135567 0.15097046l1.0043716 0.47747803q0.381382 0.18301392 2.0543938 0.83862305q0.28637695 0.29681396 0.718235 0.65063477q0.8346214 0.69625854 0.78326035 0.82714844q-0.06277084 0.16000366 0.025081635 0.27835083q0.09355545 0.10379028 0.29465485 0.23294067q0.32005692 0.12539673 0.7330284 1.1263123q0.4186821 0.98638916 0.45967865 1.9086609q0.03303528 0.6003113 -0.0020828247 0.98931885q-0.01486969 0.38015747 -0.19177246 0.8310547q-0.18831635 0.480011 -0.36063766 0.7481384q-0.27246857 0.48059082 -0.56832886 0.9352417q-0.27560043 0.44580078 -0.45789337 0.5253906q-0.657547 0.17868042 -0.7716789 0.46957397q-0.10271835 0.26184082 -1.3656464 1.0423584q-1.2426758 0.771698 -2.2642403 1.1936951q-1.2204132 0.629364 -2.6752815 0.9151306q-4.484932 0.22280884 -5.9693832 -0.44281006q-1.1013832 -0.23019409 -1.3798027 -0.2050476q-0.25816345 0.016326904 -0.5545845 0.38684082q-0.32551956 0.35910034 -0.6478996 0.75302124q-0.32238388 0.39389038 -0.37374115 0.5248108q-0.32608032 0.2749939 -1.7942009 2.0491333q-1.4535751 1.7798767 -2.0743866 2.677765q-0.2818756 0.3762207 -0.49068832 0.39508057q-0.19997406 0.039123535 -0.5491257 -0.097717285zm7.9210815 -8.42514q0.03536606 0.080963135 0.3990631 0.22348022q0.42189026 0.16534424 1.1512947 0.31689453q0.7496605 0.14273071 1.4924889 0.13174438q1.3179092 0.063323975 3.0860023 -0.25076294q0.5360184 -0.12557983 1.3841362 -0.4477234q0.8538246 -0.33670044 1.7267761 -0.8504944q0.32037354 -0.260437 1.3702278 -1.2251587q0.43876266 -0.34829712 0.945446 -0.95529175q0.5269356 -0.6158142 0.74378204 -1.1685486q0.10271835 -0.2618103 0.12498093 -0.4041443q0.16524887 -0.8918152 -0.24772644 -1.8927307q-0.39842606 -0.99520874 -1.1976814 -1.6104736q-0.6323929 -0.39883423 -1.185215 -0.6154785q-0.42189026 -0.16531372 -1.0001068 -0.27441406q-0.58649826 -0.04522705 -0.94794464 0.1487732q-0.34689713 0.19970703 -1.1049118 0.9767151q-1.3011856 1.1347351 -2.568451 2.5680542q-1.4321938 1.93927 -2.5733528 3.1367188q-1.1354523 1.1828918 -1.3083382 1.3668823l-0.05135727 0.1308899q-0.07989502 0.2036438 -0.19772339 0.37564087q-0.103279114 0.17770386 -0.041389465 0.3194275zm7.9176598 13.708679q-0.051361084 0.13092041 -0.095005035 0.11380005q-0.058189392 -0.02279663 -0.15858078 -0.28030396q-0.106098175 -0.24295044 -0.20335388 -0.46566772q-0.17682648 -0.40490723 -0.14684677 -0.69525146q0.050231934 -0.29916382 0.3361206 -0.9423218q1.4336395 -2.1568604 3.622963 -4.571411q0.2579193 -0.4862976 0.5828743 -0.9295349q0.33066177 -0.4577942 0.44021225 -0.56591797q0.011413574 -0.029083252 0.24305344 -0.10614014q0.24618912 -0.07131958 0.36715317 -0.20852661q0.13036728 -0.032836914 0.21596527 -0.25100708q0.11413193 -0.29092407 0.09275055 -0.4503479q0.21685028 -0.5527344 4.8679657 -5.8624268q0.43362427 -0.24960327 0.8256073 -0.6498108q0.4065323 -0.39450073 0.5477524 -0.54052734q0.092430115 -0.06448364 0.21082306 -0.15234375q0.1329422 -0.08215332 0.14435577 -0.11126709q0.051361084 -0.1308899 -0.10979462 -0.36187744q-0.14660645 -0.22525024 -0.19338226 -0.27716064q-0.17080688 -0.80532837 0.023216248 -1.2998657q0.13695526 -0.34909058 0.47244263 -0.51971436q0.34376526 -0.23449707 1.3139725 -0.52557373q0.736557 -0.080566406 1.0934219 -0.09176636q0.35686493 -0.011199951 0.6914673 0.119903564q0.3200531 0.12542725 0.48064423 0.27227783q1.170105 0.52563477 1.6071091 0.78079224q0.44270325 0.24060059 0.51142883 0.53604126q0.05618286 0.15625 0.24329376 0.36383057q0.20166779 0.21328735 0.43443298 0.3045044q0.73109436 0.40396118 1.6022034 1.3494568q0.89136505 0.9366455 0.9657974 1.2175293q0.39360046 0.70803833 0.40092468 1.8017273q0.027572632 1.0848389 -0.3385315 2.3174744q-0.47934723 1.2218323 -0.8878937 1.7498169q-0.39398956 0.5336609 -1.529686 1.246582q-1.5935898 1.2383118 -3.8107376 2.0980225q-2.2171402 0.8597412 -4.826195 1.263794l-0.39255524 0.31607056q-0.14266205 0.36364746 0.39151764 1.6973572q0.5398941 1.3191528 1.2979965 2.723816q0.76381683 1.3901367 1.0501938 1.6869507q0.10810852 0.10949707 0.4421463 0.15646362q0.33974457 0.032440186 0.4706726 0.08377075q0.45098877 0.17669678 0.21131134 0.7876282q-0.1264267 0.6217346 -1.209877 0.90200806q-0.22223663 0.181427 -0.3956833 0.28128052q-0.15890503 0.105529785 -0.2607422 0.06564331q-0.18911743 -0.0741272 -0.68455505 -0.822052q-0.9484329 -0.79119873 -1.6509247 -2.1237183q-0.6879349 -1.3268433 -1.2987976 -3.277954q-0.5159378 -1.2090759 -0.785759 -1.633667q-0.2552719 -0.41888428 -0.6189728 -0.56140137q-0.21821976 -0.085510254 -0.36056137 -0.10772705q-0.36370087 -0.14251709 -0.6027374 -0.3033142q-0.2244873 -0.15509033 -0.36595154 -0.47903442q0.0274086 -0.24099731 -0.21789932 -0.4713745q-0.24530411 -0.2303772 -0.3366089 0.0023498535l-0.67386246 0.7764282q-1.1571503 1.4093323 -1.4832306 1.6843262q-0.07362366 0.27322388 -0.5506439 0.9757385q-0.47702408 0.70251465 -1.1845589 1.6503296q-0.17176056 0.3522339 -0.36803436 0.5102539q-0.2019844 0.1725769 -0.11067963 -0.060150146q-0.13776398 -0.20501709 -0.19595337 -0.22781372q-0.04364395 -0.017089844 -0.15319443 0.09100342zm9.393406 -6.1029053q1.8667908 -0.30895996 3.9104843 -1.0688477q2.0494003 -0.77441406 3.092102 -1.5069885q0.24047852 -0.056793213 0.7400131 -0.4316101q0.50523376 -0.3894043 0.63560486 -0.4222107q0.16460419 -0.12011719 0.40452576 -0.26104736q0.23991394 -0.14093018 0.29127502 -0.27182007q0.06277466 -0.16000366 0.012298584 -0.33084106q0.10271454 -0.2618103 0.24023438 -0.5267639q0.13751984 -0.26498413 0.38628387 -0.38565063q0.3882904 -0.5191345 0.49100494 -0.7809448q0.17690277 -0.45092773 -0.002494812 -0.80651855q-0.17369843 -0.3701172 -0.6996765 -0.91186523q-0.1237793 -0.28344727 -0.60240936 -0.68917847q-0.46408844 -0.4000244 -0.58361053 -0.4804077l-0.6101303 -0.5411682q-0.3491516 -0.1368103 -1.010643 -0.5470581q-0.5128708 -0.31845093 -0.8329315 -0.44387817q-0.3890915 -0.034973145 -0.5770874 0.059173584q-0.18799591 0.09414673 -0.9408722 0.77246094q-0.2179718 0.38449097 -0.5871353 0.72650146q-0.35461426 0.3477173 -0.51407623 0.36914062q-0.07474518 0.10494995 -1.8429871 2.1307068q-3.8879585 4.434021 -3.9906769 4.6958313q-0.03994751 0.10183716 0.2002182 0.4308777q0.2401619 0.32907104 0.38708496 0.16845703q0.046779633 0.0519104 0.2219162 0.20443726q0.19539642 0.14370728 0.31547546 0.30822754l0.36595154 0.47903442l1.1002579 0.061950684zm8.257767 12.902191q-0.7778015 -1.3117065 -0.9474716 -1.948761q-0.15512848 -0.6313782 0.06316376 -1.4017029q0.033676147 -0.17141724 0.19916534 -0.5932312q0.35380554 -0.90182495 1.0445404 -2.191864q0.69644165 -1.304596 1.1703339 -2.0419006q0.18228912 -0.079589844 0.29384613 -0.321167q0.117263794 -0.25613403 0.11670685 -0.340271q0.03993988 -0.10180664 0.41110992 -0.577301q0.86073303 -1.0388184 1.3403244 -1.7906494q1.9114685 -2.3052673 3.35701 -3.5512695q1.4657974 -1.2548218 3.0408173 -2.2319336q1.9558487 -0.87820435 2.99823 -1.2249146q1.0480881 -0.3612671 2.1996994 -0.4302063q1.54216 -0.2515869 2.0949783 -0.034942627q0.10183716 0.039886475 0.26813507 0.17218018q1.6498642 1.0996399 2.123848 2.5440063q0.47969055 1.4298096 0.017066956 3.849701q-0.47943115 2.0776978 -0.8731766 3.0813293q-0.6334305 1.614563 -1.8601837 3.0302124q-1.2267609 1.4156189 -3.7155685 3.3100586q-3.0867844 2.7341309 -6.2684326 3.8703918q-3.1816406 1.1362915 -5.2765427 0.31536865q-1.1347427 -0.4446411 -1.7975998 -1.4931335zm2.4310226 -0.12142944q1.1570053 0.30233765 2.4170456 -0.042999268q1.2745819 -0.33963013 3.3856354 -1.4422913q1.8217773 -0.96432495 2.6365356 -1.5009155q0.82930756 -0.5309143 1.6563568 -1.3983154q0.8270569 -0.86743164 2.271225 -2.7516785q0.8944092 -1.2102051 1.292984 -1.9266968q0.41883087 -0.7253113 0.8354111 -1.7871399l0.7926483 -2.105957q0.18775177 -0.56414795 0.2180481 -1.2403259q0.04484558 -0.6704712 -0.102890015 -1.0640259q-0.26893616 -0.72628784 -1.039978 -1.0284424q-0.4946289 -0.19381714 -1.0312119 -0.15234375q-0.7137375 0.022369385 -2.3974304 0.80584717q-1.6779861 0.7689209 -3.1517334 1.7017822q-1.4534988 0.92401123 -1.6075821 1.316742q-0.011413574 0.02911377 -0.103279114 0.17770386q-0.09186554 0.14859009 -0.24506378 0.2395935q-0.7665329 0.37091064 -2.1464844 1.877533q-1.3799515 1.5066528 -2.7140045 3.3669128q-1.3195114 1.8659363 -1.9198227 3.2249756l-0.5064392 1.0769653q-0.11412811 0.29092407 -0.133255 0.46801758q-0.004585266 0.1828003 0.06984711 0.4637146q0.08013916 0.2663269 0.1254654 0.53582764q0.05731201 0.32452393 0.34368896 0.6213379q0.3009262 0.30252075 0.6937256 0.45645142q0.21821594 0.085510254 0.36055756 0.10772705zm5.0929794 9.698578q-0.53538513 -0.64611816 -0.7044983 -1.1990662q-0.16910553 -0.552948 -0.03866577 -1.4416199q0.030540466 -0.20617676 0.1789093 -0.5843811q0.50788116 -1.2945557 1.693985 -0.98080444q-0.022827148 0.058166504 -0.061645508 0.32824707q-0.053367615 0.26437378 -0.053123474 0.734375q-0.59750366 1.7796936 0.6619034 2.2060547q0.697731 0.18951416 0.97559357 0.08023071q1.1302338 -0.22839355 2.7161102 -1.3186951q1.6004181 -1.0845947 3.0545578 -2.7803345q0.25647736 -0.26870728 0.72320557 -0.77386475q0.4812851 -0.49945068 1.2050629 -1.1891785q0.9885254 -1.0223083 2.4583359 -2.5440674q1.4900665 -1.5306396 1.5186005 -1.603363q0.0014419556 -0.21759033 1.7685547 -2.4115906q1.781662 -2.188324 2.3933182 -2.7206116q0.3982544 -0.33059692 0.72377014 -0.6897278q0.32552338 -0.35910034 0.3882904 -0.519104q0.056503296 -0.22958374 2.5339737 -2.9507751q0.2045517 -0.22192383 0.250206 -0.33828735q0.11412811 -0.29092407 -0.27866364 -0.44482422l-0.47381592 -0.11856079q-0.20053864 -0.045013428 -0.9133835 -0.32434082q-0.7128525 -0.2793274 -1.0443192 -0.3756714l-0.43901062 -0.121673584q-0.39279175 -0.15393066 -0.65779114 -0.2913208q-0.24474335 -0.14624023 -0.4047699 -0.20895386q-0.614151 -0.27423096 -0.92134094 -0.6463318q-0.28694153 -0.38095093 -0.1328659 -0.77368164q0.09700775 -0.24728394 0.41481018 -0.45837402q0.24136353 -0.3585205 1.1142426 -0.016479492q0.71284485 0.2793274 1.5634613 0.7636719q1.6330643 0.7574158 3.4304962 0.92474365q0.97615814 0.16433716 1.470787 0.3581543q0.407341 0.15963745 0.55137634 0.43423462q0.16429138 0.26574707 0.20874023 0.8369751q0.08126068 0.43460083 0.018486023 0.5946045q-0.051353455 0.13092041 -0.48184204 0.41534424q-0.7571335 0.47525024 -3.41745 3.191925l-1.2829437 1.2593689q-0.531517 0.7986145 -1.2344742 1.5636292q-0.9571762 1.3702393 -1.4327545 1.855133q-0.46102905 0.4906311 -0.49526215 0.5779114q-0.5300751 0.58102417 -2.1955948 2.3449402q-1.6509781 1.7696533 -2.7225342 2.9608154q-0.8047867 0.72509766 -1.3140411 1.3814087q-0.6088333 0.9529419 -1.4301834 1.8058167q-0.80680084 0.85858154 -0.9537277 1.019165q-0.10271454 0.2618103 -1.6563644 1.3983154q-1.3744888 1.0220947 -1.7176819 1.3407288q-2.4984589 1.3200684 -4.011444 0.72720337q-0.8728714 -0.34204102 -1.5465851 -1.2773132zm22.196861 2.740448q-1.5129852 -0.592865 -2.4046707 -1.1436462q-0.87713623 -0.545105 -1.3908157 -1.4176636q-0.43411255 -0.69033813 -0.48226166 -1.3804932q-0.04814911 -0.6901245 0.29424286 -1.5628662q0.43940735 -1.1200256 1.6442184 -2.7792053q0.49100494 -0.7809448 0.9286499 -1.2974854q0.45218658 -0.51086426 0.61221313 -0.44815063l0.70069885 -1.101532q0.10328674 -0.17770386 0.32182312 -0.47805786q0.23879242 -0.30917358 0.35975647 -0.44638062q0.1355133 -0.13150024 0.31780243 -0.2111206q0.16516876 -0.035949707 0.7351837 -0.71881104q0.022827148 -0.058166504 0.13751984 -0.2649536q0.120407104 -0.221344 0.36546326 -0.4609375q0.7939453 -0.61187744 0.89665985 -0.87371826q0.06904602 -0.090423584 0.4013977 -0.29580688q0.3468933 -0.19970703 0.6261978 -0.5265808q3.498146 -2.8414612 4.2165375 -3.9024963q0.62249756 -0.6455078 1.140274 -0.89572144q-0.027648926 -0.2290039 0.68294525 -0.28619385q0.7105942 -0.05718994 1.738678 0.060394287q1.0483322 0.10873413 1.9060974 0.3609314q0.25502777 -0.051086426 0.94705963 0.1529541q0.7122879 0.19519043 1.5415192 0.5201416q0.5819168 0.22802734 1.5862885 0.7055054q0.5237274 0.20523071 0.841774 0.46411133q0.33829498 0.25003052 0.57218933 0.5095215q0.23389435 0.25946045 0.33629608 0.3834839q0.11493683 0.2632141 0.06526947 0.6465149q-0.029418945 0.37445068 -0.06365967 0.46173096q-0.06276703 0.16000366 -0.8072891 -0.08139038q-0.7388077 -0.25595093 -2.1499557 -0.80892944q-1.1929321 -0.46743774 -2.9946213 -0.8378296q-0.64525604 -0.15216064 -0.90711975 -0.25476074q-0.42960358 -0.017303467 -0.76677704 -0.099090576q-0.33146667 -0.09631348 -0.43330383 -0.13623047q-0.13092804 -0.05130005 -1.785286 1.213562q-1.6543503 1.2648315 -1.7747574 1.4861755q-0.11412811 0.29092407 -0.42879486 0.5368042q-0.31466675 0.24591064 -1.077507 0.7357178q-0.63560486 0.4222107 -0.76114655 0.742218q-0.10271454 0.2618103 0.063583374 0.394104q1.0665741 0.2333374 2.5493393 0.6465759q1.4973145 0.4189148 2.1810684 0.6868286q0.35999298 0.023590088 0.6218567 0.1262207q0.45098877 0.1767273 0.7379303 0.5576782q0.34087372 0.2006836 0.45838165 0.41455078q0.117507935 0.21386719 0.054740906 0.37387085q-0.091308594 0.23272705 -0.38741302 0.21740723q-0.4050827 0.17687988 -2.255005 -0.027770996q-1.8499146 -0.2046814 -3.8313217 -0.5447693q-1.9668655 -0.33441162 -2.1710968 -0.49835205q0.015426636 -0.2960205 -0.065589905 -0.26065063q-0.060760498 0.026550293 -0.5389099 0.560791q-0.46360016 0.5399475 -1.1323166 1.2176819q-1.0321732 1.0052185 -1.7630997 1.9270935q-0.7309265 0.921875 -1.5919724 2.346527q-0.49156952 0.6968384 -0.5771713 0.91500854q-0.17690277 0.45092773 -0.051994324 0.9026184q0.14515686 0.4428711 0.7147827 1.001709q0.5128708 0.31845093 1.2548218 0.6091919q1.3820496 0.54156494 3.0491104 0.7416992q0.6378555 -0.08566284 1.2585983 -0.12771606q0.6409912 -0.05090332 0.87005615 -0.07861328q0.24417877 0.06210327 0.5288696 0.106536865q0.3049469 0.035583496 0.5086136 0.11541748q0.38998413 -0.26675415 0.7827759 -0.11282349q0.10183716 0.039916992 0.3473816 0.7402649q0.25125885 0.68582153 0.17080688 0.80532837q-0.12554169 0.32000732 -0.8013382 0.37405396q-0.6757965 0.05404663 -2.872612 0.049072266q-1.5812149 0.05166626 -2.1968079 -0.0049743652q-0.60105133 -0.05090332 -1.6048584 -0.4442749zm14.326439 6.2852173q-0.8668518 -0.74246216 -1.3300552 -1.4442139q-0.4486618 -0.6960449 -0.45083618 -1.8883972q0.046928406 -1.65979 0.81731415 -3.6234436q0.7475586 -1.9054871 1.4907761 -3.1581726q0.7577667 -1.2470093 1.8584213 -2.4267578l0.55345917 -0.5550842q1.0284729 -1.124115 1.4267273 -1.4547424q1.0492935 -1.0488281 3.2131424 -2.5000305q1.9581757 -1.397522 3.001999 -1.9618225q1.0495377 -0.57888794 1.903923 -0.8314514q0.8746338 -0.26138306 3.134552 -0.8022766q0.9530792 -0.24746704 1.9132385 0.12878418q0.81469727 0.31924438 1.3386536 0.9944458q0.5442352 0.66638184 0.6023407 1.5450134q0.12402344 0.7534485 -0.28112793 1.7861938q-0.57066345 1.4545593 -1.8473358 2.7835083q-1.2621155 1.3346252 -2.6197357 1.8431091q-0.43418884 0.16549683 -0.72514343 0.051483154q-0.3491516 -0.1368103 -0.7256317 -0.88848877q-0.07411194 -0.66674805 -0.06896973 -0.7654114q0.010848999 -0.113220215 0.18229675 -0.07962036q0.43362427 -0.24963379 1.380188 -1.0366516q0.9668274 -0.7958679 1.3987732 -1.2978821q0.13807678 -0.18081665 0.37316895 -0.60894775q0.7012634 -1.017395 0.8553467 -1.4101257q0.14837646 -0.37820435 0.021453857 -0.69644165q-0.06188965 -0.14172363 -0.22190857 -0.20443726q-0.26187134 -0.1026001 -1.0332336 -0.01889038q-0.8965759 0.0178833 -2.5491638 0.6792908q-1.6323395 0.65252686 -3.1118011 1.5999451q-2.242859 1.3530884 -3.5394669 2.3050232q-1.2763519 0.9430847 -2.2061234 2.0723267l-0.6744232 0.69229126q-0.022262573 0.14233398 -0.35862732 0.61465454q-0.3306656 0.4577942 -0.6162338 0.7150879q-1.1871338 1.6996765 -1.9118576 3.5469666q-0.5421219 1.3818359 -0.71138763 2.5405884q-0.16926575 1.1587524 0.1276474 1.7281799q0.16171265 0.3151245 0.68544006 0.5203247q0.6401062 0.2508545 1.7112732 0.3013916q1.085701 0.056243896 2.7074356 -0.013122559q0.8560715 -1.5258789E-4 1.6591034 -0.12182617q0.82328033 -0.13049316 1.2834244 -0.31936646q1.0746155 -0.3005371 1.5983429 -0.0953064q0.39479828 0.020446777 0.52573395 0.071746826q0.058189392 0.02279663 0.038497925 0.11578369q5.645752E-4 0.08413696 -0.05079651 0.21502686q-0.17690277 0.45092773 -0.8826752 0.7952881q-0.68551636 0.33554077 -1.6739655 0.50198364q-0.90574646 0.3834839 -1.950386 0.39367676q-1.3239365 0.33709717 -2.9197006 0.38305664q-1.5957718 0.045928955 -2.730507 -0.39871216q-0.2618637 -0.1026001 -0.6115799 -0.32354736zm17.367546 5.7315674q-0.1822815 0.079589844 -0.31321716 0.028289795q-0.16001892 -0.06271362 -0.4729309 -0.42025757q-0.3731079 -0.24691772 -0.5196991 -0.47216797q-0.13206482 -0.21957397 -0.017929077 -0.5104675q0.12553406 -0.32000732 0.53778076 -0.72906494q0.5021057 -0.42416382 3.5953064 -4.800415q1.3859863 -1.9070435 1.3859863 -1.9070435q0.017120361 -0.043640137 0.52467346 -0.95233154q0.29016113 -0.440094 0.98716736 -1.660553q0.68382263 -0.58792114 1.1773987 -1.4181824q0.49357605 -0.83029175 0.57403564 -0.9497986q0.5606079 -0.78723145 0.76516724 -1.0091553l0.73036194 -1.0059814l0.48016357 -0.6677246q0.5523224 -0.72335815 0.6379242 -0.9415283l0.20542908 -0.5236511l-1.1929169 -0.46746826l-0.6224365 -0.21032715l-1.2251587 -0.51364136q-0.4395752 -0.20581055 -1.2397156 -0.51937866q-1.4901581 -0.6510315 -1.9168701 -1.1035461q-0.4121704 -0.44680786 -0.18190002 -1.1620789q0.095321655 -0.49969482 0.49583435 -0.4937744q0.40621948 -0.008636475 1.7009888 0.49871826q1.1347351 0.44467163 1.8943634 0.7758789q0.46240234 0.14764404 1.3061829 0.47827148q0.9019623 0.3534546 1.4870148 0.616272q0.5850525 0.26281738 0.68688965 0.30273438q0.12724304 -0.06762695 0.24819946 -0.20480347q0.1355133 -0.13150024 0.20455933 -0.22192383q0.21113586 -0.538208 0.6261902 -0.5265808q0.35461426 -0.3477173 0.6455841 -0.23370361q0.39279175 0.15393066 0.5604553 0.924469q0.009963989 0.18847656 -0.004333496 0.652771q-0.014312744 0.46429443 0.11831665 0.76797485q0.1822815 -0.079589844 0.9065552 0.1706543q0.7242584 0.25024414 1.0266266 0.33517456q0.6110077 0.2394104 1.2682495 0.44662476q0.677475 0.19833374 0.8956909 0.283844q0.35372925 -0.04598999 0.9647522 0.19345093q0.2909546 0.11401367 0.79185486 0.3774109q0.74194336 0.29074097 1.0189209 0.4831848q0.28268433 0.17791748 0.32174683 0.37780762q-0.14266968 0.36364746 -0.045410156 0.58636475q0.09098816 0.15310669 0.056747437 0.24038696q-0.028533936 0.07272339 -0.24507141 0.2395935q-0.3468933 0.19970703 -1.2779541 -0.16513062l-0.6951752 -0.23883057q-0.7413788 -0.206604 -1.0614319 -0.33203125q-1.3829346 -0.23983765 -3.8466797 -1.1045837q-1.3238678 -0.5187683 -1.42659 -0.256958q-0.18911743 -0.07409668 -1.5636749 1.803833q-0.49157715 0.69680786 -0.96087646 1.2513123q-0.4490509 0.5456543 -0.6655884 0.71255493q0.050476074 0.17080688 -0.012298584 0.33081055q-0.06277466 0.16000366 -0.46873474 0.63861084q-0.24450684 0.32373047 -0.50668335 0.6069946q-0.26219177 0.28323364 -0.33636475 0.47232056q-0.080459595 0.119506836 -0.42567444 0.57162476q-0.3394928 0.43753052 -0.68099976 1.0085449q-0.7706299 1.4936829 -1.1149597 1.644043q-0.07217407 0.055633545 -0.2627411 0.19909668q-0.17602539 0.14920044 -0.26733398 0.3819275q-0.17689514 0.45092773 -0.8604889 1.5088196q-0.6633301 1.0490417 -0.834198 1.0995483q0.10183716 0.039916992 0.027648926 0.2290039q-0.091308594 0.23272705 -0.47187805 0.6038513q-0.10272217 0.2618103 -0.34721375 0.5855408q-0.22424316 0.3149109 -0.26989746 0.4312744l-0.7023926 0.8491211q-1.6150513 1.9347534 -1.797348 2.0143738z" fill-rule="nonzero"/><path fill="#000000" fill-opacity="0.0" d="m189.12831 293.47818l141.88976 -35.590546l15.874023 63.212616l-141.88977 35.590546z" fill-rule="evenodd"/><path fill="#000000" d="m215.5308 332.4751q-1.2434845 -0.3968811 -1.8995056 -0.76394653q-0.6408844 -0.3708496 -0.75123596 -0.81030273q-0.11036682 -0.43948364 0.38182068 -0.9173584q0.14006042 -0.14788818 0.6215668 0.03741455q0.49667358 0.18148804 1.0048065 0.47286987q1.0693665 0.60165405 2.493988 0.24432373q0.60621643 -0.15206909 1.5455933 -0.6454468q1.2763977 -0.75509644 2.1432037 -1.7940979q0.8667908 -1.038971 1.5361023 -2.4794617q0.40072632 -0.97039795 0.4602661 -2.016327q0.059555054 -1.0458984 -0.16116333 -1.9248657q-0.27020264 -1.0759888 -0.8049927 -1.4734192q-1.7903595 -1.4840088 -4.2910156 -0.856781q-1.0608826 0.26611328 -1.9471741 0.77838135l-1.8409576 0.88061523q-0.06436157 0.06448364 -0.29544067 0.17074585q-0.21591187 0.102508545 -0.35832214 1.6524658q-0.14620972 1.5348206 -0.39375305 4.013275q-0.17959595 2.2358704 -0.38328552 3.1568604q-0.18855286 0.9171753 -0.52197266 1.0007935q-0.34857178 0.08743286 -1.0010681 -0.52212524q-0.51594543 -0.5149536 -0.62631226 -0.95440674q-0.11036682 -0.43948364 0.06716919 -1.015625q0.09059143 -0.34490967 0.12057495 -0.67459106q0.04512024 -0.3335266 0.044525146 -0.91329956q0.11222839 -1.4135132 0.89456177 -7.151245q0.79748535 -5.7415466 1.3136292 -8.690094q0.35404968 -2.1185608 -0.006011963 -2.1410217q-0.026641846 -0.1060791 -0.1822052 -0.27645874q-0.14041138 -0.17419434 -0.13673401 -0.28790283q-0.049468994 -0.19699097 0.78741455 -0.8418579q0.8368988 -0.64486694 1.2954254 -0.6793213l0.21218872 -0.053222656q0.42434692 -0.10644531 0.38249207 -0.27316284q0.07577515 -0.019012451 0.60614014 -0.21646118q0.5417328 -0.21643066 1.1934814 -0.31549072q2.3114471 -0.35424805 3.832016 0.44030762q1.5205536 0.79455566 1.9545288 2.651001q0.16764832 0.8600464 -0.5580139 2.7818604q-0.72946167 1.9066162 -1.6224976 3.2260437q-0.41246033 0.60284424 -0.9764252 1.3081055q-0.55259705 0.68634033 -0.7153778 0.87213135l0.90966797 0.09402466q1.8041687 0.19180298 2.9835052 0.84643555q1.1793213 0.65460205 1.9122009 2.0333557q0.15950012 0.3143921 0.22799683 0.5871887q0.18647766 0.7425537 0.16477966 1.7467651q-0.0065307617 1.0003967 -0.13078308 1.7886963q-0.16270447 0.25021362 -0.23822021 0.5269165q-0.06414795 0.25772095 -0.09439087 0.32974243q0.0039367676 0.14398193 -0.34744263 1.1825562q-0.33622742 1.0347595 -0.64253235 1.675415q-1.316925 1.8768005 -2.5023346 2.673523q-1.2647705 0.99383545 -3.0379639 1.4385986q-1.6519623 0.41436768 -2.6225128 0.07788086zm-1.6131897 -13.352478q0.36366272 -0.15563965 1.4318848 -0.6491394q1.0644226 -0.50860596 1.4620819 -0.785553q0.06816101 -0.049316406 0.3710785 -0.31860352q0.30290222 -0.2692871 0.58665466 -0.7431946q0.61676025 -0.9440613 1.418396 -2.6915894q0.8129883 -1.76651 1.1074219 -2.9035645q0.4872284 -1.5881348 0.32739258 -2.2246094q-0.11035156 -0.43948364 -0.5654144 -0.7119446q-0.5765228 -0.43533325 -2.2284698 -0.020965576q-1.0760345 0.26989746 -1.7994995 0.6607971q-0.43556213 0.25424194 -0.61343384 0.50827026q-0.1665039 0.2350769 -0.075164795 0.5987854q0.12557983 0.50009155 -0.26785278 1.1787109q0.01914978 0.20458984 -0.056427002 0.41687012q-0.07557678 0.21224976 -0.09446716 0.26531982q0.022842407 0.09094238 -0.15802002 1.1028442q-0.26786804 1.1787109 -0.4104004 2.599823q-0.5270996 3.3540344 -0.4357605 3.717743zm17.765488 7.980011q-1.3953094 -0.61654663 -1.903595 -1.0367737q-0.4931183 -0.42401123 -0.7629852 -1.177887q-0.07217407 -0.15908813 -0.18252563 -0.5985718q-0.23596191 -0.9395752 -0.423172 -2.390747q-0.19100952 -1.4663391 -0.23361206 -2.3416443q0.10215759 -0.17062378 0.052612305 -0.43203735q-0.053344727 -0.2765808 -0.10267639 -0.34475708q-0.026641846 -0.1060791 -7.4768066E-4 -0.70861816q0.09713745 -1.3453064 0.050735474 -2.2357483q0.21672058 -2.986206 0.6695709 -4.8395996q0.46420288 -1.8723145 1.1787109 -3.5818787q1.0819855 -1.8500977 1.729126 -2.7373352q0.64334106 -0.90237427 1.5407867 -1.6268616q1.1092834 -1.099823 1.6851959 -1.2442627q0.10609436 -0.026611328 0.31832886 -0.015411377q1.9820404 -0.06222534 3.2071075 0.8386841q1.2212524 0.8857422 2.2506256 3.1244202q0.816864 1.9698181 1.0794525 3.015503q0.42242432 1.6821289 0.24624634 3.5466614q-0.17619324 1.864502 -1.1016083 4.8512573q-0.9243469 4.0174866 -2.8542938 6.7890625q-1.9299469 2.771576 -4.112335 3.3190002q-1.1821289 0.2965088 -2.3309479 -0.17245483zm1.9085236 -1.5096741q1.117569 -0.4253235 1.9427032 -1.4377441q0.84028625 -1.0162354 1.9181976 -3.1391296q0.92282104 -1.8423767 1.2743225 -2.7521057q0.3666687 -0.9135437 0.5359802 -2.099762q0.16931152 -1.1861877 0.25022888 -3.5584106q0.024963379 -1.5043945 -0.066833496 -2.3190613q-0.080459595 -0.83358765 -0.3582611 -1.9398804l-0.57832336 -2.1746216q-0.17492676 -0.5682678 -0.5431366 -1.136383q-0.3530426 -0.5718994 -0.70196533 -0.8065796q-0.6409302 -0.43527222 -1.4441681 -0.23379517q-0.5152893 0.12927246 -0.9280243 0.47442627q-0.56803894 0.43243408 -1.4835052 2.0474548q-0.919281 1.5998535 -1.5770264 3.2146606q-0.64642334 1.5958252 -0.54367065 2.005005q0.0076141357 0.030303955 0.019165039 0.20462036q0.011550903 0.17428589 -0.060287476 0.33728027q-0.40852356 0.7468567 -0.6565552 2.774353q-0.24801636 2.0275269 -0.2532196 4.3163147q0.0099487305 2.2849731 0.3108673 3.7398682l0.21343994 1.1707458q0.07611084 0.3031006 0.16343689 0.45837402q0.102493286 0.15148926 0.3262787 0.33700562q0.22000122 0.17034912 0.41348267 0.36343384q0.23521423 0.23098755 0.6408081 0.306427q0.42074585 0.07168579 0.8299408 -0.030975342q0.22732544 -0.057006836 0.35612488 -0.121520996zm20.402267 -4.1510315q-1.689148 1.1002808 -3.0076752 1.4309998q-1.682251 0.42196655 -3.9036407 -0.08401489q-0.1709137 -0.35986328 -0.4933319 -0.61727905q-0.30723572 -0.26123047 -0.6179657 -0.21551514q-0.11369324 -0.003692627 -0.43611145 -0.2611084q-0.31105042 -0.2763672 -0.43243408 -0.3748169q-0.3076477 -0.6477356 -0.34188843 -0.78411865q-0.07611084 -0.3031006 -0.14501953 -0.9623718q-0.053741455 -0.66311646 -0.05407715 -0.985199l0.10507202 -0.9929199q0.2133789 -2.550415 0.6353302 -4.975952l0.25195312 -1.8835144q0.56040955 -4.119507 0.7105713 -5.510315q0.16529846 -1.3946533 0.028289795 -1.9401855q-0.07611084 -0.3031006 -0.34176636 -0.65530396q-0.18218994 -0.27648926 -0.2507019 -0.5492554q-0.23594666 -0.9395752 0.6426697 -1.5465698q0.9996033 -0.8951111 2.1092834 -1.6083984q1.1248474 -0.71710205 1.9735565 -0.92996216q1.1063538 -0.27752686 2.4101257 -0.21792603q1.2999725 0.044433594 1.5467377 0.44970703l0.2122345 0.011199951q0.030319214 -0.0076293945 0.18574524 0.033935547q0.15162659 0.026397705 0.44358826 0.16259766q0.39430237 0.158844 0.75102234 0.6170654q0.3680725 0.43927002 0.48605347 0.9090576q0.049468994 0.19702148 0.045806885 0.31069946q0.022827148 0.090911865 0.19754028 0.46594238q0.18609619 0.35604858 0.30758667 0.583313q0.07980347 0.18939209 0.18255615 0.5985718q0.4718933 1.8791504 -0.7991028 4.1954956l-0.29489136 0.6860962q-0.03781128 0.10614014 -0.23822021 0.5269165q-0.20423889 0.40563965 -0.34825134 0.4095459q-0.45031738 0.64453125 -0.3665924 0.9779358q0.04185486 0.16668701 0.2730713 0.1892395q0.08345032 0.07574463 0.37173462 0.32559204q0.30343628 0.24606323 0.7775574 0.59432983q1.2177124 1.1282654 1.6705627 2.9316406q0.23977661 0.9547119 0.17993164 1.7429504q-0.03262329 1.4096985 -1.3303833 3.4910889q-1.3015747 2.0662537 -3.096527 3.4508057zm-5.8923187 -10.056091q0.35986328 -0.17080688 0.8635254 -0.5387573q0.8029022 -0.5235901 1.0566864 -0.66778564q1.3826752 -0.58847046 2.4615936 -1.7450867q1.0902557 -1.1755676 1.7444763 -2.5478516q0.65042114 -1.3874207 0.77038574 -2.6418152q0.07170105 -0.2918396 0.033187866 -0.8943176q-0.023376465 -0.6062927 -0.13374329 -1.0457764q-0.06468201 -0.25759888 -0.12164307 -0.3560791l-0.068496704 -0.27279663q-0.37568665 -0.46957397 -1.2057648 -0.56744385q-0.81492615 -0.10165405 -1.8606567 0.16064453q-1.5761719 0.39535522 -2.8183289 1.2868652q-0.33702087 0.26171875 -0.39349365 0.6141968q-0.04133606 0.3486328 -0.021896362 0.8109436q0.019424438 0.46228027 0.046188354 0.6972046q0.046081543 0.5683594 -0.09613037 2.3115845q-0.10508728 0.9928894 -0.101135254 1.1369019q0.015213013 0.06060791 -0.09448242 0.26531982q-0.109695435 0.20471191 -0.06782532 0.37142944q-0.041534424 0.15539551 -0.12438965 0.65945435q-0.082839966 0.5040283 -0.10127258 1.0080566q-0.07904053 0.51919556 -0.09373474 0.973938q-0.014694214 0.45474243 -0.0107421875 0.59872437q0.022827148 0.09094238 0.14433289 0.3182068q0.13287354 0.20828247 0.19335938 0.0642395zm1.8556671 9.634918q0.20463562 -0.019104004 0.67445374 -0.13696289q1.6822662 -0.42196655 3.261032 -1.9617004q1.5787811 -1.5397644 2.190796 -3.4008179q0.60876465 -1.3609009 0.338562 -2.4368591q-0.22073364 -0.8789673 -1.0021973 -1.6172485q-0.9825134 -0.89730835 -2.1494904 -0.60458374q-0.54559326 0.13684082 -1.1894684 0.52386475q-0.6325226 0.3680725 -0.791626 0.44021606q-0.50379944 0.23913574 -2.3180542 1.2902222q-1.0490723 0.6980896 -1.3067169 0.76272583q-0.10975647 0.1402893 -0.34803772 0.6027832q-0.24208069 0.44735718 -0.2571106 0.5799866q-0.17799377 0.1251831 -0.2567749 0.9020691q-0.06742859 0.7579346 -0.051467896 1.5271606q0.012161255 0.75408936 0.11450195 0.7767334q0.14401245 -0.00390625 0.11430359 0.5834656q-0.0335083 0.5722351 -0.040786743 0.8640137q0.0040740967 0.27282715 0.030715942 0.37890625q0.15983582 0.6365051 1.0279694 0.8858948q0.86813354 0.24942017 1.9593964 0.040130615zm19.350525 -2.211853q-0.9432373 0.41378784 -1.9738159 0.67230225q-1.7580566 0.440979 -2.8388367 -0.20614624q-0.37161255 -0.19674683 -0.43249512 -0.4392395q-0.030426025 -0.12121582 0.056549072 -0.2880249q0.24984741 -0.288208 0.7574463 -0.5121765q0.5189514 -0.24291992 1.810852 -0.67974854q1.6255188 -0.32717896 3.23526 -1.2303467q1.6249084 -0.9069519 2.7720642 -2.048462q1.1584778 -1.160492 1.4947815 -2.1308289q0.34729004 -1.3114014 0.15319824 -2.0842896q-0.20928955 -0.8334961 -1.1915283 -1.473114q-0.49673462 -0.24591064 -0.9970703 -0.3137207q-0.48516846 -0.071624756 -1.1635132 -0.014221191q-0.6062012 0.15203857 -0.9243469 0.36071777q-0.31811523 0.2086792 -0.78759766 0.6486206q-0.14389038 0.13275146 -0.6171875 0.55752563q-0.45812988 0.42099 -0.86346436 0.60321045q-0.16638184 0.3638916 -0.7420654 0.70162964q-0.5757141 0.33770752 -1.1516418 0.48217773q-0.530426 0.13302612 -0.7390137 0.008148193q-0.2121582 0.053222656 -0.30288696 0.2692871q-0.07559204 0.21228027 -0.21887207 0.9248047q-0.022491455 0.23117065 -0.13183594 0.7579651l-0.10870361 1.1710205q-0.02243042 0.29556274 -0.07110596 0.87161255q-0.0335083 0.5722046 -0.0029296875 0.82229614q-0.11663818 0.818573 -0.10507202 0.9928894q-0.13934326 0.85650635 -0.22247314 1.1028748q-0.079315186 0.26153564 -0.30664062 0.318573q-0.13641357 0.034210205 -0.29943848 -0.03765869q-0.16305542 -0.0718689 -0.36026 -0.21569824q-0.1972351 -0.14385986 -0.4437256 -0.29144287q-0.27279663 0.06842041 -0.40219116 -0.44680786q-0.1408081 -0.56073 -0.013031006 -1.5915527q0.07159424 -0.4206543 0.30410767 -2.7664795q0.5105591 -4.7030334 0.5862427 -4.786438q-0.06488037 -0.45089722 0.0637207 -0.7086792q0.12475586 -0.27294922 0.109558105 -0.33355713q0.026367188 -0.15158081 0.19921875 -1.5803223q0.18417358 -1.4476929 0.5133362 -1.997406q-0.06851196 -0.27279663 0.50198364 -1.9784546q0.045196533 -0.269104 0.18807983 -1.3681335q0.03366089 -0.4433899 0.07131958 -0.6783447q0.048980713 -0.25393677 0.07922363 -0.32595825q0.24945068 -0.67471313 0.22280884 -0.78079224q-0.041870117 -0.16668701 -0.42871094 -0.42407227q-0.07583618 -0.045410156 -0.2124939 -0.26885986q-0.1253357 -0.24243164 -0.17861938 -0.45458984q-0.034240723 -0.13638306 0.55630493 -0.7999878q0.6056824 -0.66741943 0.97302246 -0.9367676q0.42034912 -0.31484985 1.1019897 -0.8080139q0.68167114 -0.49316406 1.1399536 -0.78530884q0.427948 -0.2845459 0.9734802 -0.48583984q0.55688477 -0.22021484 1.0039978 -0.30014038q0.344635 -0.23144531 0.708374 -0.32266235q0.5001221 -0.12545776 1.0005188 0.0067749023q0.5571594 0.03744507 1.3080444 0.5256653q0.76608276 0.48443604 1.0053406 0.9882202q0.30767822 0.6477356 0.38378906 0.9508362q0.11035156 0.43948364 -0.014160156 0.9700928q0.11444092 0.7123108 -0.009063721 2.2092285q-0.123535156 1.4968872 -0.32781982 1.8381042l-0.32113647 0.96655273q-0.4797058 1.5540161 -1.1454773 2.7519836q-0.04159546 0.0909729 -0.23828125 0.4624939q-0.18151855 0.36773682 -0.6126709 1.2168884q0.09854126 0.007507324 0.48135376 0.05645752q0.39797974 0.045166016 0.6595764 0.12451172q0.89849854 0.3062439 1.7101746 0.90808105q0.8116455 0.6018677 1.2861328 1.3366394q0.41348267 0.36343384 0.59994507 1.1060181q0.15222168 0.60617065 0.103759766 1.3754578q-0.037109375 0.7503357 -0.27893066 1.4553528q-0.1585083 0.651886 -0.6994324 1.6413574q-0.5409241 0.9894409 -0.6773071 1.0236816q-0.1819458 -0.018829346 -0.41674805 0.13674927q-0.2234497 0.13659668 -0.7308655 0.553833q-0.19668579 0.37149048 -0.43136597 0.6558838q-0.21951294 0.28060913 -0.40145874 0.2618103q-0.098480225 0.056915283 -0.43548584 0.31863403q-0.3218689 0.25793457 -0.7005005 0.61065674q-0.8067932 0.44400024 -2.4432373 1.1766663zm-4.0960083 -10.152252q0.10241699 0.08706665 0.9545288 -0.49719238q0.8482971 -0.59939575 1.7418823 -1.4034424q0.9049072 -0.82302856 1.3022156 -1.4220581q0.5791931 -0.6446533 1.2035522 -1.5584106q0.6357422 -0.9326782 0.5900574 -1.1145325q0.0074768066 -0.09854126 0.10562134 -0.47756958q0.09436035 -0.39416504 0.30612183 -0.8338928q0.30645752 -0.5118103 0.4537964 -0.95150757q0.1586914 -0.45861816 0.12826538 -0.5798645q0.0036621094 -0.11367798 0.07910156 -0.45480347q0.07543945 -0.34109497 0.21517944 -0.8110962q0.24575806 -0.56100464 0.2374878 -1.2355347q-0.008300781 -0.6744995 0.00680542 -0.7427063q-0.1373291 -0.86764526 -0.64553833 -1.2234497q-0.4930725 -0.35958862 -1.1332703 -0.086242676q-0.7614441 0.30374146 -1.7878723 0.8995056q-1.0264587 0.59573364 -1.5186462 1.0736084q-0.7003479 0.73947144 -0.62423706 1.042572q0.041870117 0.16668701 0.26919556 0.109680176q0.18188477 -0.04562378 0.24276733 0.19683838q0.11798096 0.4697876 -0.27111816 1.6789246q-0.29449463 1.0726318 -1.1283264 4.680786q-0.82244873 3.589203 -0.7275696 3.7103882zm27.643555 -19.69226q0.21252441 0.26885986 0.2583313 0.5795593q0.022949219 0.21975708 -0.20785522 0.5837097q-0.23458862 0.34881592 -0.3140564 0.48150635q-0.5827637 0.8227844 -1.7819824 2.9116821q-1.184082 2.0851135 -1.8306885 3.4877014q-0.96066284 1.8840637 -1.7663574 3.3587952q-0.8057251 1.4747009 -1.1802673 2.1002502q-0.011291504 0.08337402 -0.5031433 0.8833313q-0.040374756 1.2505188 -0.0011901855 2.4971924l-0.13400269 2.353302q-0.041107178 0.54193115 -0.06640625 1.7242432q-0.02911377 1.1671448 -0.10055542 1.7166443q-0.003326416 0.43579102 -0.010467529 0.8564148q0.004211426 0.40167236 -0.010559082 0.7919922q-0.0029296875 0.82229614 -0.028900146 1.3604126q-0.022155762 0.5532532 -0.124298096 0.72387695q-0.098358154 0.1857605 -0.39398193 0.16323853q-0.12887573 1.2207031E-4 -1.1600952 -0.3855896q-0.38684082 -0.25735474 -0.45535278 -0.53012085q-0.06088257 -0.24249268 -0.031311035 -0.9587097l0.017822266 -1.0837708q-0.17138672 -0.810791 -0.16122437 -1.9892883q0.010131836 -1.1784973 0.24047852 -1.9934082q-0.12561035 -0.50009155 -0.058563232 -1.6445312q0.0670166 -1.1444702 0.2024231 -2.1449585l0.17251587 -1.750824l-0.75479126 -0.56781006q-1.005249 -0.9237976 -1.5972595 -1.6774292q-0.58065796 -0.7725525 -1.0518188 -1.9431152q-0.71759033 -1.2536926 -1.086731 -2.7236938q-0.11795044 -0.4697876 -0.58258057 -2.6407166q-0.33502197 -1.4624329 -0.17272949 -2.0991821q0.1585083 -0.651886 0.16217041 -0.7655945q0.14755249 -0.24642944 0.28393555 -0.28063965q0.37890625 -0.09503174 0.8648071 0.6852112q0.49725342 0.761261 0.7523804 1.9054565q2.0465393 7.3156433 3.7677307 7.88266q0.2918396 0.0073547363 0.3524475 -0.007843018q0.37887573 -0.09503174 0.69296265 -0.5765381q0.32540894 -0.50045776 1.2294312 -2.1609497l0.5409241 -0.9894409q0.38583374 -0.70892334 2.0386658 -3.9425964q0.94924927 -1.9295349 1.5430908 -3.0289307q0.6052246 -1.1183472 1.0065613 -1.5089722q0.064208984 -0.19332886 0.20809937 -0.32608032q0.14007568 -0.14788818 0.23855591 -0.20480347q0.109802246 -0.0758667 0.14013672 -0.083465576q0.14401245 -0.00390625 0.24267578 0.13241577q0.11383057 0.13253784 0.26193237 0.40145874q0.16323853 0.26513672 0.34909058 0.427948z" fill-rule="nonzero"/></g></svg>